<svg xmlns="http://www.w3.org/2000/svg" viewBox="0 0 539.25654 274.28024"><defs><style>.cls-1,.cls-42{fill:#0fa0f5;}.cls-1,.cls-32,.cls-56{stroke:#000;}.cls-1,.cls-31{stroke-linejoin:round;}.cls-1{stroke-width:0.97063px;fill-rule:evenodd;}.cls-2{font-size:20px;}.cls-2,.cls-53{font-family:PragatiNarrow-Bold, Pragati Narrow;font-weight:700;}.cls-3,.cls-35{font-size:8px;}.cls-3,.cls-34,.cls-35,.cls-43,.cls-44,.cls-45,.cls-49,.cls-50,.cls-51,.cls-60{font-family:PragatiNarrow-Regular, Pragati Narrow;}.cls-3{letter-spacing:0.06em;}.cls-4{letter-spacing:0.10596em;}.cls-5{letter-spacing:0.09503em;}.cls-6{letter-spacing:0.07599em;}.cls-7{letter-spacing:0.06702em;}.cls-8{letter-spacing:0.05798em;}.cls-9{letter-spacing:0.03601em;}.cls-10{letter-spacing:0.07202em;}.cls-11{letter-spacing:0.03003em;}.cls-12{letter-spacing:0.07196em;}.cls-13{letter-spacing:0.05792em;}.cls-14{letter-spacing:0.02496em;}.cls-15{letter-spacing:0.013em;}.cls-16{letter-spacing:0.02502em;}.cls-17{letter-spacing:0.06201em;}.cls-18{letter-spacing:0.03204em;}.cls-19{letter-spacing:0.05804em;}.cls-20{letter-spacing:-0.00397em;}.cls-21{letter-spacing:0.01599em;}.cls-22{letter-spacing:0.00598em;}.cls-23{letter-spacing:0.06097em;}.cls-24{letter-spacing:0.03699em;}.cls-25{letter-spacing:0.04797em;}.cls-26{letter-spacing:0.00604em;}.cls-27{letter-spacing:0.04803em;}.cls-28{letter-spacing:0.04596em;}.cls-29,.cls-44,.cls-45,.cls-51{fill:#666;}.cls-30,.cls-56{fill:none;}.cls-31{fill:#fff;fill-opacity:0.5;stroke:#f2f2f2;stroke-width:2px;}.cls-32{fill:#e6e6e6;}.cls-32,.cls-56{stroke-miterlimit:10;}.cls-33{fill:#333;}.cls-34{font-size:5px;}.cls-36{letter-spacing:-0.02802em;}.cls-37{letter-spacing:-0.00006em;}.cls-38,.cls-58{fill:#eb5028;}.cls-39{fill:#ff7837;}.cls-40{fill:#e6e673;}.cls-41,.cls-59{fill:#1ed2d7;}.cls-43{font-size:10px;}.cls-44{font-size:9px;}.cls-45{font-size:7px;}.cls-46{letter-spacing:-0.012em;}.cls-47{letter-spacing:-0.0279em;}.cls-48{fill:#999;}.cls-49{font-size:18.02158px;}.cls-50{font-size:24px;}.cls-51,.cls-53{font-size:12px;}.cls-52{letter-spacing:-0.04199em;}.cls-54{letter-spacing:-0.01196em;}.cls-55{letter-spacing:-0.01701em;}.cls-57{fill:gray;}.cls-58{font-size:7.17062px;font-family:LibreBarcode128-Regular, "Libre Barcode 128";}.cls-59{letter-spacing:0.00007em;}.cls-60{font-size:6px;}</style></defs><title>proposal</title><g id="Layer_1" data-name="Layer 1"><path id="MA" class="cls-1" d="M435.95021,92.44161l-.114-.076v.114l.114-.038Zm-1.14-1.026.266-.114v-.152l-.266.266Zm4.712-2.964-.038-.532-.076-.304Zm-16.606-3.914-.266.114-2.166.646-.76.266-.874.266-.304.114v.114l.114,1.976.114,1.824.114,1.672.19.114.684-.19,3.078-.912.076.19,5.472-2.09.038.076.494-.19,1.748-.684,1.672,2.014h0l.228-.19.114-.57-.038.912h.38l.114.456.342.646h0l1.786-2.166,1.482.494.342-.76,2.432-1.292-1.026-2.014.266,1.292-1.254.95-1.406.114-2.812-3.002-1.254-1.9,1.254-1.33-1.292-.076-.532-1.254-.038-.076-2.166,2.356-4.788,1.596-1.558.494Z" transform="translate(-7.58632 -8.92871)"/><path id="MN" class="cls-1" d="M280.22624,61.43361l.76,2.698,1.596,9.728.76,3.876.228,3.42.874,2.052.19,1.748.152.57-.038.114-1.52,2.508.988,1.672,1.9,13.376.076,1.748,1.9-.114,7.486-.418,18.696-1.558,1.862-.19v-.19l-.532-2.926-2.318-1.178-1.824-1.9-2.888-1.748-.912-.076-1.406-1.064.38-5.244-1.33-1.216.456-2.128,2.432-2.204-.418-4.56.874-.988h0l2.964-3.116,3.382-4.332,1.292-.912,2.28-1.102,2.394-1.786-1.596.304-.95-.722-3.648.494-.57-.684-3.268,1.33-2.622-1.102-.722-.874-2.09.152-1.406-.722.456-.532-1.786-.57h-1.596l-2.546,1.102-.494-.76-4.028-.57-1.368-3.42-.152-1.026-1.748-.494.152,2.926-4.636.342-5.738.228-.38.038Z" transform="translate(-7.58632 -8.92871)"/><path id="MT" class="cls-1" d="M243.86025,61.09161l-12.578-.836-9.158-.874-9.12-1.064-5.662-.76-9.044-1.406-4.522-.76-10.108-1.938-1.064-.228-1.634,7.752.722,1.406.57,2.166-.342.304.722,1.976.988.836,2.812,4.712.266.798,1.14-.076-1.33,6.232-.532.152-.722,2.09,3.762.266.304,1.748,2.128,5.206.38.304,1.482,3.04.38-.304,3.154-.038,3.99.418.988-1.292,1.178,2.128.228.114.038-.228.532-3.724,12.996,1.596,10.374.988,5.472.456,9.766.57.494.038h.114l.038-.532.114-2.622.152-3.458.038-.874.076-1.52.608-11.932.494-9.272.038-1.52-.722-.038Z" transform="translate(-7.58632 -8.92871)"/><path id="ND" class="cls-1" d="M279.42824,61.43361l-11.476.228-8.018-.038-6.878-.152-8.056-.304-.418-.038-.038,1.52-.494,9.272-.608,11.932-.076,1.52,1.482.076,16.758.456,15.466-.114,6.422-.19,1.292-.076-.152-.57-.19-1.748-.874-2.052-.228-3.42-.76-3.876-1.596-9.728-.76-2.698h-.79795Z" transform="translate(-7.58632 -8.92871)"/><path id="HI" class="cls-1" d="M209.51409,243.13458l-2.14633-1.5924-1.86937.48465.41541,3.87723-2.56174,3.18486,2.21555,5.05425.62313,5.1927,2.56173,1.66168,1.59243-2.56172,2.83868-2.07706,3.4618-.90008,3.808-3.25409-3.73877-3.18486-.06926-1.93861-7.13132-3.94646Zm-12.601-5.60813-1.03855-.90006-.96931,1.31549,2.00784-.4154Zm-5.1927-2.97714.27694-2.56174-1.31549-.20771,1.03855,2.76943Zm4.36186-4.22339-1.177.5539.83084,2.631,1.80015.13847.55388,2.2848,1.93861.83083,4.29264-2.00783-4.0157-3.32334-4.22339-1.10777Zm-8.86221-2.83868-.62312,1.86937,2.97714-.06927,2.76943.69237-1.454-2.2848L187.22,227.4872Zm-8.72375-5.46964-1.59243-1.52318-3.04639,2.354,1.93862,3.60027,1.38471-1.454,3.94646.83083-.34619-1.66167-2.2848-2.14631Zm-31.01777-3.04639.41541-.96931,1.177-.62312-1.59243,1.59243Zm11.00854-6.30048-4.84653,1.80015-.48466,1.31549,1.93862,1.38471,2.70021.69237,1.93861-3.808-1.24625-1.38472Z" transform="translate(-7.58632 -8.92871)"/><path id="ID" class="cls-1" d="M182.56626,53.22561l-3.382-.684-1.102-.266-.494-.114-4.408,19.836.19,1.634-.152,1.71.076.38v.038l.038.722,1.292,1.406-1.862,4.674-3.952,5.168-.114.95,1.026,2.432-3.61,14.972-.152.798,1.064.228,10.754,2.128,4.294.798,1.102.19,1.064.19,5.472.874,9.804,1.482,1.102.152.152-1.254.342-2.47,1.292-9.88.684-4.902.152-1.254-.228-.114-1.178-2.128-.988,1.292-3.99-.418-3.154.038-.38.304-1.482-3.04-.38-.304-2.128-5.206-.304-1.748-3.762-.266.722-2.09.532-.152,1.33-6.232-1.14.076-.266-.798-2.812-4.712-.988-.836-.722-1.976.342-.304-.57-2.166-.722-1.406,1.634-7.752h-.038Z" transform="translate(-7.58632 -8.92871)"/><path id="WA" class="cls-1" d="M136.77626,62.68761l.038-.646-.076.038.038.608Zm8.094-3.458.228-.38-.266-.038.038.418Zm-.722-.684.228-.76-.228-.076Zm2.774-1.102-.038-.76-.646.988.684-.228Zm.076-1.596.114-.76-.076-.19-.038.95Zm.114-3.724-.038-.418-.152-.038.19.456Zm1.216-2.508-.342-.038-.684,1.064Zm-.95-1.026.19-.152.038-.114-.228.266Zm-.19.114-.114-.76-.342.646.456.114Zm-.19-1.064-.342-.152.266.38.076-.228Zm1.14.646v-.494l-.114.19Zm.342-.494-.152-.114h-.038l.19.114Zm-2.166-.836-.19-.152-.076-.038Zm1.406-.152-1.026.266.266.076Zm-.836-.076-.19-.228-.038.038.228.19Zm.798-.456h-.152l.19.076-.038-.076Zm-7.448,19.494,1.368,1.482-.228,2.85.266.722,2.052,1.102,5.776.532.228.684,2.736.038,2.584.342,4.218-.456,2.09.342.57-.266,10.678,2.432.722.152-.076-.38.152-1.71-.19-1.634,4.408-19.836-.608-.114-8.892-2.09-7.752-1.976-8.778-2.432-2.622-.646.608,3.306-.57,1.064-1.026-.532.988,4.598-1.064,1.52-.494,1.406v1.444l-2.242,1.558-.95-.608-.912.456,1.672-2.166-.418,1.482.95-1.026.76.152-.228-1.9.494.076,1.026-2.28-.342-.342-1.33,1.71-.874.038.95-1.064,1.064-.266-.38-1.938-1.064-.266-.532-.912-.646.342-3.496-1.52-3.078-2.394-.836,2.318-.076.988.646,1.748-.418,5.662-.304.874,1.71.152-1.71,1.216.912.456-.722,2.432-.342-1.9-.646,2.204.874,1.064.95-.076,1.14.684.57,1.102h.684Z" transform="translate(-7.58632 -8.92871)"/><path id="AZ" class="cls-1" d="M207.26626,153.84959l-12.806-1.596-6.878-.988-9.804-1.558-.988-.152v.076l-1.672,7.372-.874-.038-1.33-1.178-1.672,1.406-.038,6.042-.608,1.292v.152l-.076.95,1.33,3.572,1.178,1.596-2.128,1.254-.836,1.558-1.368,3.344-.684.152-.038,2.774,1.178.874-.608,1.672-1.368.076h0l-.798,1.482,2.736,1.71,5.168,2.888,15.96,8.474,13.528,1.672h.152l1.064-11.21.266-2.774,2.85-29.412.152-1.368-.988-.114Z" transform="translate(-7.58632 -8.92871)"/><path id="CA" class="cls-1" d="M142.21027,174.9396l.152.836v.152l-.152-.988Zm-5.586-3.268.266.57.152-.038-.418-.532Zm6.65-.114.114.988.684.494Zm-4.598-5.396-.418-.114.342.152.076-.038Zm-4.218-1.14-1.026.608.266.266Zm-1.976-.722-.076.304.342.076-.266-.38Zm3.344.76,1.672.95.304-.266Zm-12.958-33.478-.038.038.038-.038Zm4.066.19-.038-.114v.152l.038-.038Zm21.926-28.842-1.482-.38-16.264-4.484-6.042-1.824v.152l-.342,3.762-1.596,4.446-2.66,3.306-.076,1.672,1.292,2.318.646,3.04-.912,2.47.152,2.47-.456,1.026,1.558,3.382.988,1.292-.076,3.686,2.356,2.242,1.368-2.28,1.482,1.178.57-.532-2.052.38-.038,1.938.418,2.432-1.14-1.102-.646-1.482-.19,2.052.532,4.066,2.128,2.622-1.406,1.824.228,2.318,1.52,2.356,2.66,7.296.836.456-.266,5.054.418.608,5.7,2.052,1.748,1.862.608,1.216,1.672.95,1.824.342.76,2.09,1.52.722,2.28,2.698,2.128,3.534-.152,3.268,1.178,1.558,15.542,1.52h0l1.368-.076.608-1.672-1.178-.874.038-2.774.684-.152,1.368-3.344.836-1.558,2.128-1.254-1.178-1.596-1.33-3.572.076-.95v-.038l-.988-1.33-3.04-4.066-5.89-8.284-8.208-11.78-4.636-6.422-4.484-6.46,5.168-21.926.342-1.444Z" transform="translate(-7.58632 -8.92871)"/><path id="CO" class="cls-1" d="M253.24624,132.5696l.152-7.448-1.824-.076-9.272-.342-.912-.038-.76-.038-11.286-.722-7.524-.608-9.386-.912-.912-.114-.114.988-2.052,19.798-.722,6.916-.304,3.002-.076.988,1.178.114,19.152,1.672,8.436.532,8.398.38,1.216.038.76.038,1.596.038.76.038,2.394.076h.608v-.76l.418-20.102.038-2.242v-.722l.038-.494Z" transform="translate(-7.58632 -8.92871)"/><path id="NV" class="cls-1" d="M176.98026,148.33959l3.952-24.586,2.014-12.312.228-1.216-1.102-.19-4.294-.798-10.754-2.128-1.064-.228-1.064-.228-5.358-1.178-9.614-2.28-1.064-.266-.342,1.444-5.168,21.926,4.484,6.46,4.636,6.422,8.208,11.78,5.89,8.284,3.04,4.066.988,1.33v-.114l.608-1.292.038-6.042,1.672-1.406,1.33,1.178.874.038,1.672-7.372v-.076l.19-1.216Z" transform="translate(-7.58632 -8.92871)"/><path id="NM" class="cls-1" d="M246.52024,159.6636l.038-.988.038-.988.038-.988-1.216-.038-8.398-.38-8.436-.532-19.152-1.672-1.178-.114-.152,1.368-2.85,29.412-.266,2.774-1.064,11.21.152.038,5.244.494.494-2.66.95-.76,10.64.95h.076l-.95-1.862,4.826.342,12.046.684,7.524.342,1.292-35.644.266.038.038-1.026Z" transform="translate(-7.58632 -8.92871)"/><path id="OR" class="cls-1" d="M125.07227,96.24161l6.042,1.824,16.264,4.484,1.482.38,1.064.266,9.614,2.28,5.358,1.178,1.064.228.152-.798,3.61-14.972-1.026-2.432.114-.95,3.952-5.168,1.862-4.674-1.292-1.406-.038-.722v-.038l-.722-.152-10.678-2.432-.57.266-2.09-.342-4.218.456-2.584-.342-2.736-.038-.228-.684-5.776-.532-2.052-1.102-.266-.722.228-2.85-1.368-1.482-.114.038-.266.19-1.9-.988-1.14.342-.76-.38-.798,3.268-.532.912-2.356,5.738-.684,3.154-.418.038-2.204,5.244-1.482,2.242-.532.38-1.368,2.66-.266,2.812-.836,2.508.494,2.28v.038Zm13.908-31.198-.114-.342-.038.266.152.076Z" transform="translate(-7.58632 -8.92871)"/><path id="UT" class="cls-1" d="M199.51425,112.7716l-9.804-1.482-5.472-.874-1.064-.19-.228,1.216-2.014,12.312-3.952,24.586-.19,1.216.988.152,9.804,1.558,6.878.988,12.806,1.596.988.114.076-.988.304-3.002.722-6.916,2.052-19.798.114-.988-.76-.076-9.69-1.178-1.482-.19.95-7.41.076-.494-1.102-.152Z" transform="translate(-7.58632 -8.92871)"/><path id="WY" class="cls-1" d="M242.18825,107.75561l.304-5.928.38-7.98.038-.988-.494-.038-9.766-.57-5.472-.456-10.374-.988-12.996-1.596-.532,3.724-.038.228-.152,1.254-.684,4.902-1.292,9.88-.342,2.47-.152,1.254-.076.494-.95,7.41,1.482.19,9.69,1.178.76.076.912.114,9.386.912,7.524.608,11.286.722.76.038.038-.988.19-3.99.342-6.954.152-2.964.038-.988.038-1.026Z" transform="translate(-7.58632 -8.92871)"/><path id="AR" class="cls-1" d="M331.86822,160.9556l-4.104.608,1.672-2.66-.722-1.482-14.478,1.406-12.236.988-1.786.114.228,1.064,1.482,7.676.038,1.71.418,10.336.038,1.71.114.038.57.608,2.28-.076.228,3.344.076.95,1.178-.114,3.61-.266,14.326-1.33h.076l-.038-.836.38-.266-.684-1.292,1.444-6.08-.57-.684,2.166-2.394-.152-2.052,1.596-2.66v-.038l-.076-.076,1.368-1.254-.38-1.52,1.064-1.672-.228-1.558,1.14-2.204v-.038h-.038Z" transform="translate(-7.58632 -8.92871)"/><path id="IA" class="cls-1" d="M320.54423,109.9216l-2.09-1.102-1.14-1.558-.38-2.242.304-1.026-1.102-1.33h0l-1.862.19-18.696,1.558-7.486.418-1.9.114-.798.038.646,4.218-.532,2.014.836,1.254v.266l.266.038,1.216,3.572,1.178,1.862.076,2.128,1.292,1.786-.228.76,1.178,4.788v.114h0l7.79-.228,8.322-.722,8.17-1.026,1.862,1.634.076.076.342-.152-.266-1.482,1.406-.874.57-3.876-.57-.266.342-1.976,1.71-.342,1.9-1.368.836-2.394.038-1.216-1.52-1.444-.456-.912-1.444-.912.076-.19.038-.19Z" transform="translate(-7.58632 -8.92871)"/><path id="KS" class="cls-1" d="M299.94823,154.9516l-.95-16.074-1.71-.988-.152-.76-1.368-1.216,1.33-1.634-.532-.95-.988.038-.912-.646-.38-.304-1.292.076-14.022.532-6.422.152h-12.768l-5.13-.076-1.444-.038v.722l-.038,2.242-.418,20.102v.76l1.634.038,8.816.114,20.634-.304,14.706-.684,1.444-.114-.038-.988Z" transform="translate(-7.58632 -8.92871)"/><path id="MO" class="cls-1" d="M317.46625,127.4396l-1.862-1.634-8.17,1.026-8.322.722-7.79.228h0l-.038.228.95,1.824.874.608,1.026,1.824.152.152.38.304.912.646.988-.038.532.95-1.33,1.634,1.368,1.216.152.76,1.71.988.95,16.074.038.988.076.988.038.988.076,1.026.038.988,1.786-.114,12.236-.988,14.478-1.406.722,1.482-1.672,2.66,4.104-.608h.038v-.304l.076-1.748.76-.95-.228-1.064-.038-.038-.038-.038.152-.494.228.076.114.304-.038.114v.342l.152.038.304-.38v-.038l.038-.114.988-.608.152-.076.342-3.116-.076-.152-.114-.038-2.698-2.204.418-.798-.76-2.166-1.368-1.064-2.584-1.14-1.634-1.33.19-2.736.494-2.546-2.736.152-.836-.874-.38-1.748-4.332-3.648-1.216-3.382.304-1.672h0l-.076-.076Z" transform="translate(-7.58632 -8.92871)"/><path id="NE" class="cls-1" d="M285.62224,112.6576l-1.178-1.178-4.142-1.216-1.33-.038-2.014.57-2.394-1.52-7.486.076-10.906-.114-12.882-.418-1.14-.038-.038.988-.152,2.964-.342,6.954-.19,3.99-.038.988.912.038,9.272.342,1.824.076-.152,7.448-.038.494,1.444.038,5.13.076h12.768l6.422-.152,14.022-.532,1.292-.076-.152-.152-1.026-1.824-.874-.608-.95-1.824.038-.228v-.114l-1.178-4.788.228-.76-1.292-1.786-.076-2.128-1.178-1.862-1.216-3.572-.266-.038-.722-.076Z" transform="translate(-7.58632 -8.92871)"/><path id="OK" class="cls-1" d="M300.17624,158.9416l-.076-1.026-.038-.988-.076-.988-1.444.114-14.706.684-20.634.304-8.816-.114-1.634-.038h-.608l-2.394-.076-.76-.038-1.596-.038-.76-.038-.038.988-.038.988-.038.988-.038,1.026h.228l9.196.228,9.728.114.114,12.996.684,2.28,1.52,1.444,1.634.076.342-.684,2.242,2.052,2.926.304.532.608,1.064-.494,2.66,1.254v.722l.988-.038,1.026-.874,1.9,1.216,1.786.646,1.216-1.672,3.876,1.824,1.444-1.178,1.178-.456.95.228,3.572-1.026,1.9.798,1.71,1.102,1.482.266h.038l-.038-1.71-.418-10.336-.038-1.71-1.482-7.676-.228-1.064-.038-.988Z" transform="translate(-7.58632 -8.92871)"/><path id="SD" class="cls-1" d="M283.49423,85.6016l-6.422.19-15.466.114-16.758-.456-1.482-.076-.038.874-.152,3.458-.114,2.622-.038.532h-.114l-.038.988-.38,7.98-.304,5.928-.038,1.026,1.14.038,12.882.418,10.906.114,7.486-.076,2.394,1.52,2.014-.57,1.33.038,4.142,1.216,1.178,1.178.722.076v-.266l-.836-1.254.532-2.014-.646-4.218.798-.038-.076-1.748-1.9-13.376-.988-1.672,1.52-2.508.038-.114-1.292.076Z" transform="translate(-7.58632 -8.92871)"/><path id="LA" class="cls-1" d="M331.29823,216.24559l-.494.114-.228.228.722-.342Zm1.596,0-.266-.114-.076.114Zm.912-.304h-.266l-.152.19Zm-.456-.266-.076-.114-.038.114h.114Zm3.04-2.014-.114.076h.19l-.076-.076Zm5.32-2.242.228-.304-.266.342.038-.038Zm.76-.988-.076.038v.038l.076-.076Zm-19.532,3.344.57-.722-1.558-.418-.684.57,1.672.57Zm15.77-3.306-.152-.152-.038.076.19.076Zm.418-.684-.38-.114.114.38Zm3.116-.646v0Zm.76-.494-.038-.038.038.076v-.038Zm-.304-.076-.076-.038-.038.114.114-.076Zm-2.66-.114.342-.114v-.114l-.342.228Zm.19-.19.19-.19-.038-.038-.152.228Zm-1.33-1.406-.076.076h.038l.038-.076Zm-14.022-21.28h-.076l-14.326,1.33-3.61.266-1.178.114.038.912.76,7.334,1.254,1.748.038,1.026,1.216,2.128.988,3.116-.342,1.748-.266,4.332-.57,1.406h.076l.114.988-.646.912,4.712-.532,3.686,1.026,2.622.342,1.33-.95-.722-.95,2.432-.76-.076.836,1.254-.304,1.026,1.596.874-.304,2.28,1.558-1.406.494,3.23.95h1.216l.722-.874,1.558-.836,1.102,1.596.76-1.444-.228-2.28,2.052.798.228.684,2.432.304,1.216.988-.152.798,1.71-1.596-.646-.836-2.85-.722-1.064-.608-.038-1.14,1.178.152.912-1.862-1.178-1.634-.646,1.558-1.482-.266,1.026-1.672-.684-.19-1.672,1.178-2.394.152-.684-.532,1.102-1.938,1.292-.038,2.204.722,1.596.152h0l-.874-1.102-1.672-3.268.456-1.824-13.11,1.444.494-.494-.532-1.368.798-1.178.456-2.964,2.888-4.94-1.406-1.71.076-1.254-.874-2.052v-.266Z" transform="translate(-7.58632 -8.92871)"/><path id="TX" class="cls-1" d="M286.26824,242.73158l-1.824-6.878v1.292Zm-.418-12.084-1.292,2.432-.152.798,1.444-3.23Zm1.026-1.786,1.216-1.596-.874.532Zm4.294-3.876-2.85,1.482.798-.152Zm.38-.532.798-.646-.304.076Zm-45.068-63.764-.266-.038-1.292,35.644-7.524-.342-12.046-.684-4.826-.342.95,1.862.038.038,4.104,4.104,2.356,2.774,3.116,2.318,2.204,4.028.836,4.218,1.786,1.178,1.406,1.558,2.014.722,2.926,1.862,1.33.494,1.824-1.824.57-1.938.95-1.862,2.964-1.178,1.14.57,3.306.266,3.002,1.862,2.052.38-.57,1.064,1.178.76,1.102,1.33.228,1.406.722.95,1.672,4.028,1.672,1.406,1.292,2.128,1.634,1.672.722.228.608,4.332,1.786.988.076,1.368.456-.114,3.116,3.8,1.558.342,1.976,1.178h3.04l2.204,1.216,2.622-.57-1.178-1.102-1.064-3.192-.418-2.774-.608-.912.266-1.862-.798-.076-1.064-1.748,1.216,1.292,1.406-.494.76-2.014-1.52-2.052,2.28.266,1.064-1.634-.152-.57.95-1.254-.228,1.102,1.064-.836-.418-1.482,1.368.722,1.748-.988-1.71-1.786,1.064.418,1.976.114,2.584-.57,2.888-1.938,1.748-1.444.266-1.064,1.064-1.102-.57-1.824.114-1.14,1.9-.836-.152,2.014h1.14l-1.254,1.064,5.054-2.66.836-.038.532-2.432h.152l.57-1.406.266-4.332.342-1.748-.988-3.116-1.216-2.128-.038-1.026-1.254-1.748-.76-7.334-.038-.912-.076-.95-.228-3.344-2.28.076-.57-.608-.114-.038h-.038l-1.482-.266-1.71-1.102-1.9-.798-3.572,1.026-.95-.228-1.178.456-1.444,1.178-3.876-1.824-1.216,1.672-1.786-.646-1.9-1.216-1.026.874-.988.038v-.722l-2.66-1.254-1.064.494-.532-.608-2.926-.304-2.242-2.052-.342.684-1.634-.076-1.52-1.444-.684-2.28-.114-12.996-9.728-.114-9.196-.228h-.228Z" transform="translate(-7.58632 -8.92871)"/><path id="CT" class="cls-1" d="M428.38821,88.64161l-5.472,2.09-.076-.19-3.078.912-.684.19.076.38,1.444,5.586.456.57-.988,1.216.684.646h0l2.204-2.128,1.178-1.634.228.456,5.548-2.47.114-.114-.038-.912-.228-.798-1.178-3.306-.152-.418-.038-.076Z" transform="translate(-7.58632 -8.92871)"/><path id="NH" class="cls-1" d="M423.25822,62.26961l-.494.608-.57-.114-.304,2.508v.038l.912,3.42-.076.684-1.634,2.166.418,1.976v2.47l-.304,2.28,1.71,6.232h0l1.558-.494,4.788-1.596,2.166-2.356h0v-.608l.114-.988-.266.114-.038-.228-2.394-2.926-.076-.266-5.51-12.92Z" transform="translate(-7.58632 -8.92871)"/><path id="RI" class="cls-1" d="M432.11222,92.0616l-.038-.798-.114.304.152.494Zm.76-.608-.494-.95-.038.988.532-.038Zm-.228-1.178.266.684.342.608.228-.456-.342-.646-.114-.456h-.38Zm-4.218-1.558.152.418,1.178,3.306.228.798.038.912.076-.114,1.824-1.444-.342-2.584.76-.152h0l-1.672-2.014-1.748.684-.494.19Z" transform="translate(-7.58632 -8.92871)"/><path id="VT" class="cls-1" d="M422.91621,84.53761l-1.71-6.232.304-2.28v-2.47l-.418-1.976,1.634-2.166.076-.684-.912-3.42-.494.19-2.09.76-2.052.798-4.712,1.71-.266.076,1.71,3.99.57,3.762,2.014,3.154,1.9,6.232.076-.038.304-.114.874-.266.76-.266,2.166-.646.266-.114h0Z" transform="translate(-7.58632 -8.92871)"/><path id="AL" class="cls-1" d="M342.77422,167.5296l.152.304.532.342.228,15.58.076,8.55,1.938,11.704.152-.038,1.71.342.456-3.382.76,1.9,1.292,1.178,2.47-1.444-.266-.228.076.038-1.71-3.914,16.416-2.66,1.102-.19v-.038l-1.026-1.938-.076-2.774-.836-1.52.418-2.964.684-.76-2.812-5.016-5.092-15.504-.038-.076-1.14.19-6.08.988-3.04.38-6.384.874.038.076Z" transform="translate(-7.58632 -8.92871)"/><path id="FL" class="cls-1" d="M396.16423,242.08557h-.076l.038.038.038-.038Zm-.342-.038v.038h.038Zm.076-.038v0Zm-5.168.57h0v0Zm-.076.038v0Zm.038-.038Zm-.38.038h-.038v.038Zm10.792-2.394h-.038l.038.076Zm1.026-.266v-.076l-.076.114.076-.038Zm-.38-.076-.152-.152-.038.038.19.114Zm-.114.304-.456-.57.266.494.19.076Zm3.61-2.242v.152l.076-.076Zm.532-.38.114-.19-.152.152.038.038Zm.114-.38h-.038v.038Zm-.684-.114-.038-.038.038.038Zm.342-.57-.038-.038v.076l.038-.038Zm-1.026-.038-.038-.038.038.038Zm1.292-.874-.076.038.114.038-.038-.076Zm.152,0-.076-.076.038.114.038-.038Zm-.266-.076-.038-.038v.076l.038-.038Zm1.406-.266v-.038l-.076.152.076-.114Zm-1.596.152h-.076l.076.038Zm.798-.456h-.114l-.038.038.152-.038Zm.304-.19Zm-3.192.152v-.076l-.038.076Zm.342-.114h-.114l.114.228Zm-.912.038v-.228l-.19.038Zm-.532-.38.19.19v-.076l-.19-.114Zm5.586.228-.684.304.228.038Zm-5.32-.342h-.228v.076Zm6.004-1.9.038-.19.038-.494-.076.684Zm.038-2.128-.152-.38-.076.152Zm-8.778.95-.076.114.19.038-.114-.152Zm-.722-.342-.342.114.266.038.076-.152Zm-.76.076v-.114l-.038.038.038.076Zm-.798-.038-.228.152.304.152-.076-.304Zm1.064.038-.038-.114-.19-.038.228.152Zm-4.978-3.724-.228.114.456.152-.228-.266Zm-.912-1.216-.304-.456.114.342.19.114Zm1.178.76-.532-1.216-.38-.114Zm-1.52-1.52-.114-.304-.076-.19.19.494Zm-3.154-4.218-.684-.494.266.266Zm17.1-2.546-2.774-4.636h-.152l2.926,4.636Zm-19.19-7.41-.114-.038.114.076v-.038Zm-.228-.266-.038.038.038.038v-.076Zm-.266-.38v-.038l-.038.038Zm.152-.152.114.076v-.076Zm.228-.152-.152.038h.038l.114-.038Zm-.266-.038-.114-.114.038.038.076.076Zm-.266-.418h-.076l.114.038-.038-.038Zm.266-.456h-.152l-.038.038.19-.038Zm.152.076-.19-.19.076.038.114.152Zm-1.444-1.634-.076-.038v.038Zm-1.634,0-.114-.152.038.19.076-.038Zm-13.832-1.254,1.14-.874-1.254.836.114.038Zm2.28-1.824.114-.114-.456.19.342-.076Zm-14.44-2.546-4.142,1.33,2.28-.646Zm10.298-6.46-1.102.19-16.416,2.66,1.71,3.914.114.038-.418,1.558,1.216-.532,1.33-1.178,2.28-.076,2.622-.95,1.786.266-.418.646,3.268,1.102,2.812,1.368.646,1.52,2.09-.456,4.94-4.028,1.824.076,7.448,5.624,1.52-.304,1.596,2.128.304,3.382-.494,2.128.228,1.064,1.33,2.66-.608-2.09,1.71-.038.152,1.52-.912,2.356,3.154,4.332,1.178.038-.988-1.33,1.216.152.722-.456-.304,2.432,1.634,1.292,1.102,2.964,1.482.912,1.9.494,2.622,3.344,1.368.722-1.824.114.836.95,3.002-.988,1.482-.836,1.368-4.788-.684-7.448-.152-.76-3.648-6.08-3.116-4.408-1.748-3.61,1.482,1.254.304-.228.646,3.154,1.672,2.394-1.634-3.192.076-1.52-4.902-5.966-1.178-1.862-1.558-3.154-1.064-2.66-.836-.95-.19-1.216-.038-.038-2.622-.152-1.026.798-.57,2.926-.532-1.368-17.936,2.242-1.292-2.014.038-.038Z" transform="translate(-7.58632 -8.92871)"/><path id="GA" class="cls-1" d="M392.70622,187.5936l-.038-1.14-.266.988.304.152Zm.418-1.748-.152-.874-.114.532Zm-17.784-23.94-.494.114-1.444.304-5.32,1.102-.494.114-.532.076-2.964.57-.798.152-3.23.608-.684.076.038.076,5.092,15.504,2.812,5.016-.684.76-.418,2.964.836,1.52.076,2.774,1.026,1.938v.038l-.038.038,1.292,2.014,17.936-2.242.532,1.368.57-2.926,1.026-.798,2.622.152h0l-.228-4.104.494-.874-.266-1.634.532-1.558.798-.874-.57-.532,1.33-1.634h-.038l-2.28-2.128-3.116-4.446-1.71-.798-7.334-6.156-1.786-2.28-3.458-1.444-.19-.76,1.064-2.09h0Z" transform="translate(-7.58632 -8.92871)"/><path id="MS" class="cls-1" d="M342.16623,205.87159l-.19.038v.038l.19-.076Zm3.534-.456h-.532l.494.038.038-.038Zm-4.408.38-.152.152.038.038.114-.19Zm3.572-.304h-1.444l1.368.038Zm-15.846-36.214v.038l-1.596,2.66.152,2.052-2.166,2.394.57.684-1.444,6.08.684,1.292-.38.266.038.836v.266l.874,2.052-.076,1.254,1.406,1.71-2.888,4.94-.456,2.964-.798,1.178.532,1.368-.494.494,13.11-1.444-.456,1.824,1.672,3.268.874,1.102v-.038l1.406-1.596,2.964-.646,2.736.304.418-.532v-.038l-1.938-11.704-.076-8.55-.228-15.58-.532-.342-.152-.304h-.076l-1.9.266-3.344.456-7.6.95-.836.076Z" transform="translate(-7.58632 -8.92871)"/><path id="SC" class="cls-1" d="M375.34022,161.9056h0l-1.064,2.09.19.76,3.458,1.444,1.786,2.28,7.334,6.156,1.71.798,3.116,4.446,2.28,2.128h0l.38-1.748-.608-1.672,1.634,1.216.912-.722-1.558-1.292,1.9-.114,2.964-2.508-.342-.646,1.824-1.406-.19-.684,1.33-.836.076-1.938,2.09-3.876,1.406-1.786.152-.076-8.474-5.358-3.154.608-4.294-.152-2.128-1.102-12.616,3.99h-.114Z" transform="translate(-7.58632 -8.92871)"/><path id="IL" class="cls-1" d="M320.50623,110.11161l-.076.19,1.444.912.456.912,1.52,1.444-.038,1.216-.836,2.394-1.9,1.368-1.71.342-.342,1.976.57.266-.57,3.876-1.406.874.266,1.482-.342.152h0l-.304,1.672,1.216,3.382,4.332,3.648.38,1.748.836.874,2.736-.152-.494,2.546-.19,2.736,1.634,1.33,2.584,1.14,1.368,1.064.76,2.166-.418.798,2.698,2.204.114.038-.228-.228.76-1.786,2.926.798.722-.836-.57-1.672,2.394-1.406-.646-.912.57-1.292v-.114l-.152-.038.038-3.382.836-.608,1.444-3.382-.304-1.482-.95-1.786.532-2.014-2.66-18.734-.38-.418-.988-2.242-.798-.836-.342-2.204v-.076l-5.13.722-3.078.38-8.284.95h0Z" transform="translate(-7.58632 -8.92871)"/><path id="IN" class="cls-1" d="M355.31422,110.9096l-5.814,1.026-1.33.266-4.712.76-.988.798-1.482.684-.57-.038-.684-.342-.228-.228,2.66,18.734-.532,2.014.95,1.786.304,1.482-1.444,3.382-.836.608-.038,3.382.152.038.152-.038.57-1.064h1.406l1.71-.57,2.128.798.228-.874,1.216-.912,1.824.266.988-1.938,2.698.228-.038-1.102,2.394-3.154-.38-1.444,1.672-.038,2.052-1.634-.494-1.862.076-.076-.076-.646-2.28-13.452-1.026-5.738-.114-.608-.114-.494Z" transform="translate(-7.58632 -8.92871)"/><path id="KY" class="cls-1" d="M332.93222,156.6996l-.114-.304-.228-.076-.152.494.038.038.418-.038.038-.114Zm25.992-24.852-.076.076.494,1.862-2.052,1.634-1.672.038.38,1.444-2.394,3.154.038,1.102-2.698-.228-.988,1.938-1.824-.266-1.216.912-.228.874-2.128-.798-1.71.57h-1.406l-.57,1.064-.152.038v.114l-.57,1.292.646.912-2.394,1.406.57,1.672-.722.836-2.926-.798-.76,1.786.228.228.076.152-.342,3.116-.152.076-.988.608-.038.114,1.102-.152,7.676-1.026-.38-1.52,1.292-.038,15.466-2.052,10.868-1.824.152-.114.266-.304,2.85-1.52,2.204-2.888.304-.988,1.444-1.14,1.824-2.318.266-.38-.114-.038h-.95l-1.216-.684-2.166-2.622-.76-2.66v-.076l-.076-.076-1.596-.912-.722-1.216-1.444,1.406-.912.228-1.14-.456-.988.76-2.052-.912-.532.228-1.938-1.672-.988-.494-1.862.228-.304.304Z" transform="translate(-7.58632 -8.92871)"/><path id="NC" class="cls-1" d="M410.07222,162.58959l-.418.418.076.076.342-.494Zm.304-2.204-.19.304.076.304.114-.608Zm2.28-3.534-.57.38-.304.456.874-.836Zm4.902-2.394-.228-.152-.494-.038.722.19Zm-1.026-.228h-.342l-.57.304Zm1.178.418,1.102-2.736-.76,1.14-.342,1.596Zm1.634-3.61.494-.722h-.266Zm3.192-2.964-.836-4.218.722,2.204.114,2.014Zm-4.636-9.614-.076.038-.114.038h.038l2.09,3.534,1.634,1.634-3.572-5.244h0Zm-.684.228-.304.076h0l.076.038h.646l-.076-.228h0l-.114.038h-.114v.076l-.076.038-.038-.038h0Zm-35.15,8.664-.19.57.038,1.634-.418-.038-.988,2.014-1.102.114-2.052,2.014-.912-.342-1.178,1.748-3.116,2.812-1.52.38-1.596,1.482-.076.988-1.406.76.038,1.672v.38l.494-.114,5.32-1.102,1.444-.304.494-.114h.114l12.616-3.99,2.128,1.102,4.294.152,3.154-.608,8.474,5.358.152-.114,3.914-1.596.038-2.09,1.406-2.546,1.52-1.444,3.154-2.09.418-.76.836.38.38-2.508-.456.874-1.596.532-1.52.038,1.862-1.368-.57-.608.646-1.368-3.572-.57-.152-.19,3.04-.57.988.494,1.254-.114,1.026-.76.76-1.482.684-.19-.114-2.09-.874-.836-.874.798.19,2.014-.646-2.47-.494-.114-3.762,1.558,1.672-1.634.076-.646,1.748-.418.494-1.292,1.178.684-1.254-1.862-.874-.76h0l-15.2,4.332-9.69,2.47-9.804,1.824-.038-.076Z" transform="translate(-7.58632 -8.92871)"/><path id="OH" class="cls-1" d="M381.87623,113.4176l-.95-4.104-.19-.836-1.064-4.674-1.368.874-2.926,2.242-1.9,2.318-1.482.228-2.736,1.558-1.52-.912-4.598-.532h0l-2.432.608-2.394.57-2.508.532-.38.114.114.608,1.026,5.738,2.28,13.452.076.646.304-.304,1.862-.228.988.494,1.938,1.672.532-.228,2.052.912.988-.76,1.14.456.912-.228,1.444-1.406.722,1.216,1.596.912.076.076h0l1.634-.798.57-1.254-.456-1.292,1.292-1.976.95-.152-.114-1.672,1.558-2.128.266.304,1.406-1.064,1.216-1.824.19-8.322.076-.038-.19-.798Z" transform="translate(-7.58632 -8.92871)"/><path id="TN" class="cls-1" d="M369.37423,150.16359l-10.868,1.824-15.466,2.052-1.292.038.38,1.52-7.676,1.026-1.102.152v.038l-.304.38-.152-.038v-.342l-.418.038.038.038.228,1.064-.76.95-.076,1.748v.342l-1.14,2.204.228,1.558-1.064,1.672.38,1.52-1.368,1.254.076.076.836-.076,7.6-.95,3.344-.456,1.9-.266h.076l-.038-.076,6.384-.874,3.04-.38,6.08-.988,1.14-.19.684-.076,3.23-.608.798-.152,2.964-.57.532-.076v-.38l-.038-1.672,1.406-.76.076-.988,1.596-1.482,1.52-.38,3.116-2.812,1.178-1.748.912.342,2.052-2.014,1.102-.114.988-2.014.418.038-.038-1.634.19-.57-.608.114-2.166.608-2.584.532-6.498,1.33-.684.114-.152.114Z" transform="translate(-7.58632 -8.92871)"/><path id="VA" class="cls-1" d="M417.33022,138.6116h.114l.114-.038h0l-.076-.19-.152.228h0Zm-1.292-4.256v.19l.19-.114Zm.684-1.33-.038-.304h0Zm-.228.456-.076.494-.114.19.19-.684Zm.342-.988.038-.228-.076.228h.038Zm.228-1.026.114-.266-.19.684Zm.038-.57.152-.836-.19.19.038.646Zm.684-3.762.076-.342-.038.076-.038.266Zm-.152-.874-.494.19-.76.342-.266.342.114.038-.912,5.662.342.912.532-2.356.988-3.078.456-2.014v-.038Zm.76-.304-.114.038-.038.152-.19,1.178.152-.418.19-.95Zm-39.71,14.554-.266.38-1.824,2.318-1.444,1.14-.304.988-2.204,2.888-2.85,1.52-.266.304.684-.114,6.498-1.33,2.584-.532,2.166-.608.608-.114.038.076,9.804-1.824,9.69-2.47,15.2-4.332h0l-.114-.19-.038-.114.266.266h0l.304-.076-.038-.038-.266-1.292.19.038.608,1.14h0l.114-.038.076-.038-.152-.304-1.558-2.394-1.938.342-.874.722-.836-.76-2.85-.95-1.976-.076,3.838-.342,2.128,1.444.608-.95-1.71-2.166,1.216.076-.646-1.748-1.52.076-3.61-2.926h-.456l5.092,2.508-.342-1.748.342-.57-2.584-.988-2.242-.152-1.102-.988-.912.57-.342-2.622.38.076-.076-2.128-.076-.076-.076.038-.076-.038-.19-.152-.114-.114-1.216-.532-1.254-.912-1.748-.456-.114-.038v.038l-.228,1.596-3.534-1.52.076,2.204-1.938,3.686-1.178,1.292-.76,2.242-2.318-.798-1.14,5.168-.912,1.748-.152,2.28-.684,1.102-2.546.76-2.09,1.634-.988.152-.95.836-2.394-.874-.418-1.178-.076-.038Z" transform="translate(-7.58632 -8.92871)"/><path id="WI" class="cls-1" d="M337.87223,85.29761l-.95,1.178-.57,1.71.266.95Zm-21.812-8.93.57-.798-.418.38Zm.874-1.254-.19-.228-.418.266.608-.038Zm-8.284,2.128-.874.988.418,4.56-2.432,2.204-.456,2.128,1.33,1.216-.38,5.244,1.406,1.064.912.076,2.888,1.748,1.824,1.9,2.318,1.178.532,2.926v.19h0l1.102,1.33-.304,1.026.38,2.242,1.14,1.558,2.09,1.102-.038.19h0l8.284-.95,3.078-.38,5.13-.722-.152-.57v-1.786l-1.026-1.9-.266-2.394.494-2.66-.266-2.052.912-2.546-.342-.418.076-2.356.494-1.786-.57-.608-1.102.38-.608,1.596-1.444.836.456-2.014,1.292-1.71.076-.76.038-.038-1.824-1.824v-2.584l-2.052-1.672-2.812-.19-2.888-.76-6.232-1.9-1.216-.684-.114.114-1.938-.266-.646.38.266-2.774-3.116,1.596-3.8.608-.038-.076Zm7.448-2.014-.076-.266-.266.114Zm-1.368-.266.114-.228-.076-.076-.038.304Zm2.774-.646-.114-.532-.114.646Z" transform="translate(-7.58632 -8.92871)"/><path id="WV" class="cls-1" d="M389.13423,120.10561l-5.396,1.33-1.672-7.22h0l-.076.038-.19,8.322-1.216,1.824-1.406,1.064-.266-.304-1.558,2.128.114,1.672-.95.152-1.292,1.976.456,1.292-.57,1.254-1.634.798h0v.076l.76,2.66,2.166,2.622,1.216.684h.95l.114.038.076.038.418,1.178,2.394.874.95-.836.988-.152,2.09-1.634,2.546-.76.684-1.102.152-2.28.912-1.748,1.14-5.168,2.318.798.76-2.242,1.178-1.292,1.938-3.686-.076-2.204,3.534,1.52.228-1.596v-.038h0l-1.102-1.9-2.28-.266-1.33,1.026v.76l-1.14.266-1.672,1.178-.874.19-1.748,2.47-.874-3.99-.76.19Z" transform="translate(-7.58632 -8.92871)"/><path id="DE" class="cls-1" d="M411.47823,113.8356l.152.57,3.154,9.006,3.61-1.064-.038-.076h.076l.114.038h0l.076-.038-.076-.152-.912-2.432-4.446-4.218.19-2.926h-.912l-.684.532-.304.76h0Z" transform="translate(-7.58632 -8.92871)"/><path id="DC" class="cls-1" d="M405.36022,122.2336l.19.152.076.038.076-.038.076.038.266.152.076.114v.266l.076.152.494-.912-.532-.304-.646.038-.152.304Z" transform="translate(-7.58632 -8.92871)"/><path id="MD" class="cls-1" d="M418.43221,125.8056l.266-2.052-.228,1.52-.152.646-.038.076.114-.038.038-.152Zm.19-3.534-.076.038.076.228v-.266h0Zm-28.728-2.356.874,3.99,1.748-2.47.874-.19,1.672-1.178,1.14-.266v-.76l1.33-1.026,2.28.266,1.102,1.9h0l.114.038,1.748.456,1.254.912,1.216.532.114.114.152-.304.646-.038.532.304-.494.912v.038l-.722,2.204,2.356,1.52,2.356.114,1.558.722-.646-1.824-2.014-.684-.494-1.558,1.254,1.672,1.026.152-.912-.912-.722-2.698.19-1.558-.798-1.71.836-.684.608-2.204-.228,3.268.646,1.102.608-1.292.342,2.128-.646,1.558,1.862.684-1.596.532.836,1.558,1.368.456.76-1.33-.076,1.862,1.292-.038.836.95h.038l.266-.342.76-.342.494-.19-.038-.076.988-2.926v-.114l-.19-.76v-.038l-3.61,1.064-3.154-9.006-.152-.57-.646.19-2.698.836-14.858,4.142-2.698.722-.684.19Z" transform="translate(-7.58632 -8.92871)"/><path id="NJ" class="cls-1" d="M420.48421,113.6836l-.19-.456v.456Zm.38-1.406.114-1.14-.228.988.114.152Zm-1.558-11.666-3.99-.988-.684-.19-.646-.152h0l-1.596,3.534.684.836-.038,2.546.722.114,1.482,3.876-.076.114-1.862,2.736.19,2.09,4.484,1.52.038,1.748,1.026-1.444.152-2.09,1.064-.722-.418-1.558.798-1.862v-4.066l-.266-1.33-1.786.038.456-1.824.266-2.926h0Z" transform="translate(-7.58632 -8.92871)"/><path id="NY" class="cls-1" d="M419.19222,103.68961l-.57.798-.152.228Zm5.244-1.862,1.9-1.672v-.076l-1.9,1.748Zm-4.978,1.178v-1.292l-.114.684Zm8.816-6.08-.456-.114-.076.342Zm1.026-.684-.038.38.076-.228-.038-.152Zm-1.064.038-2.546,2.356-3.914,1.672-1.026.874-.076.836-1.064.874.152,1.14,1.634-.646,2.394-1.938,2.66-1.406,4.028-3.8-2.85,2.166-.912.38,1.52-2.508Zm1.178-1.596.152-.228-.456.532Zm-42.712-1.406-.608-.076.456.608.152-.532Zm12.616-11.628.076-.418-.304.38.228.038Zm.19-2.736-.152.076-.19.418.342-.494Zm-16.074,21.584.266,1.14,2.014.494,11.552-3.154,11.628-3.496,2.128,1.634.418.95,2.47,1.064.076.152.646.152.684.19,3.99.988-.076-.19.342,1.558.76-.19.418-1.71v-.038l-.684-.646.988-1.216-.456-.57-1.444-5.586-.076-.38-.19-.114-.114-1.672-.114-1.824-.114-1.976v-.114l-.076.038-1.9-6.232-2.014-3.154-.57-3.762-1.71-3.99-.228.114-7.942,2.66-1.596,1.71-1.786,3.42.076.76-2.356,3.572,1.444.494.418,2.698-1.672,2.204-5.016,3.04-.95-.38-3.724.532-3.458,2.09.19,1.102,1.216,1.064-.684,3.344-2.736,3.192-.038.038Z" transform="translate(-7.58632 -8.92871)"/><path id="PA" class="cls-1" d="M413.91023,99.1296l-2.47-1.064-.418-.95-2.128-1.634-11.628,3.496-11.552,3.154-2.014-.494-.266-1.14-.646.494-1.026.722-1.862,1.9-.228.19,1.064,4.674.19.836.95,4.104.19.798h0l1.672,7.22,5.396-1.33.76-.19.684-.19,2.698-.722,14.858-4.142,2.698-.836.646-.19h0l.304-.76.684-.532h.912l.114-.342,1.482-1.672.152-.266.114-.076-1.482-3.876-.722-.114.038-2.546-.684-.836,1.596-3.534h0l-.076-.152Z" transform="translate(-7.58632 -8.92871)"/><path id="ME" class="cls-1" d="M432.22623,78.87561h-.038l.076.038-.038-.038Zm2.812-8.094-.304-.456v.228Zm-.532-.418v-.38l-.038-.228Zm1.368-1.596-.076-.038.038.114.038-.076Zm3.8-1.9-.076-.57-.152.266Zm-.95.228.038-.418-.456.076.418.342Zm1.406-1.254h-.152v.076Zm-1.9.57-.342-.076-.038.342.38-.266Zm1.938-1.178.342.266-.114-.304Zm-1.026.038-.342.646.456-.228-.114-.418Zm-1.634.038-.152.228.114.342.038-.57Zm2.242-1.254-.038-.304-.114.19.152.114Zm-.19.152-.342-.304v.266Zm-2.128.874-.076-.418-.152.342Zm3.61-1.33-.57.836-.038-.608Zm2.774-2.546-.266-.38-.152.076Zm1.026-1.71-.228-.114-.038.114h.266Zm.494-2.964h-.342l.38.114-.038-.114Zm.57.38-.114-.684-.304-.038Zm-.608-.608-.076-.722-.266.494.342.228Zm-22.04,5.966,5.51,12.92.076.266,2.394,2.926v-.038l.38-.114.076-2.166.608-.76.38-2.014-.342-.342.646-1.976,2.204-1.026,1.444-1.748.532-3.04,2.318-.152-.304-1.558,2.888-1.102.19-1.71.684.152,1.9-1.558.836-2.014-1.938-1.938-2.052-.418-.76-1.558v-.912l-1.254.38-1.406-.494v-1.558l-3.8-8.208-2.774-1.444-3.078,2.584-.836-.152-.722-1.33-.988.38-1.406,6.992.494,2.28.418,4.636-1.102,3.572.76.57-.912,1.748-.988-.152-.076.076Z" transform="translate(-7.58632 -8.92871)"/><path id="MI" class="cls-1" d="M343.42023,86.62761l-.19-.304-.038.38Zm.608-.684-.456-.608-.076.266Zm.38-2.736-.38-.342v.076Zm-.95,29.754,4.712-.76,1.33-.266,5.814-1.026.114.494.38-.114,2.508-.532,2.394-.57,2.432-.608-.038-.114,1.254-2.47-.114-2.052,1.406-3.534,1.102.646.418-.798-.114-3.04-1.026-1.9-1.52-4.028-1.33-1.482-.684-.19-2.47,1.71.266.342-1.292,2.432-1.254-.228-.38-2.546.532-.19,1.102-2.546.114-4.484-1.71-3.8-3.8-.646-.38-.57-3.534-1.026-1.596,1.976.152,1.71-1.216,1.52.266,2.356-1.178.836v-2.964l-1.064,2.242-1.254,1.976-.836.646.418,2.09-.532,2.166.304,2.698-.38,1.33,2.736,5.244.342,2.014-.342,3.724-1.824,4.18-.228.152Zm8.132-34.238-.988.076.608.456.38-.532Zm-5.776.988h-.304l.342.152Zm6.65-4.826-.38-.608-.152.038.532.57Zm-34.428,2.774,1.216.684,6.232,1.9,2.888.76,2.812.19,2.052,1.672v2.584l1.824,1.824v-.038l1.482-4.294,1.786-1.254,1.368-1.52.228,1.368,1.406-2.166,3.382-1.292.266-.532,3.42.418,1.33.684.646-1.672.608.38,2.66-.418-.646-1.064-1.178-.684.228-2.47-2.318,1.292-2.128-.266-.684-1.634.228-.532-2.888,1.368-1.862.114-3.344,2.052-.38.76-2.052-.494-1.292.57-2.584-2.242-5.738-1.748-.114-.684-3.686,3.534-2.09.532-2.964,2.242-.114.076Zm13.452-8.626-4.446,2.204,1.482,1.444.57-1.444,1.52-1.862.874-.342Zm-4.978-5.206-3.04,2.09-.152,1.026,2.394-1.748Z" transform="translate(-7.58632 -8.92871)"/><path id="AK" class="cls-1" d="M8.41782,273.05405l-.34619.13845.27695.06926.06926-.20771Zm2.56174.41543h0v0Zm-1.24626-1.177v.20771l.13848-.06927-.13848-.13849Zm-.62312-.34617V271.877h0Zm1.31548.69237v-.13849l-.06926.06927.06926.06927Zm-.13847-.13849v-.06927h-.13847Zm0-.83081.06926-.41543-.277.13844.20771.27694Zm7.89292,3.39257-.06927-.06927.13847.27694-.06926-.20771Zm-5.12348-2.42327-.76159-.69237V273.608Zm1.73091,1.52319-.06926-.48466-1.177-.06926,1.24625.55387Zm4.15416.96931-.06926.13849h.13847l-.06926-.13849Zm.27695.06926h-.13848l.27695.06927Zm.83082.27694h0Zm-1.52319-.96931-.55389-.06926.20771.20771.34618-.13849Zm1.7309.1385-.13847-.06927v.06927Zm4.2234.83081-2.70021.20772-.62312.27694Zm8.37757,3.18486v-.27694h-.13847Zm3.60028.06927.13848-.13845-.13848-.13849Zm2.70022.76159.13847-.06926h-.06927l-.06926.06926Zm-2.21555-1.24624-.06927-.27694h-.13847l.20771.27694Zm4.63881,1.03853-.06927.06926h.06927Zm-3.66951-1.03853.13848-.41543h-.06927l-.06927.41543Zm11.7009-1.03854.06927-.13849-.13848-.06926.06926.20771Zm-1.7309-.62314-2.42327,2.14633L47.19,278.593l2.00785-1.59241-1.31548-.41543Zm4.36187.76159-.48465-.13845.34618.27694.13848-.13849Zm.96931.06927-.7616-.20772-.13847.06927Zm-2.631-.96931H49.821l1.31548.34616Zm3.18486.69237-.06927-.13845-.27694.06927.34617.06927Zm-2.07709-.83082-.27694-.13844v.76159Zm8.86223,1.7309-.06927-.06926h-.13848l.2077.06926Zm.13848-.06926v-.06927l-.13848-.06927.13848.13849Zm-1.177-.41543.13848.27694v-.06927l-.13848-.20772Zm.62312,0-.62312-.20772.7616.55388Zm.90007-.69237h0v0Zm8.23909,1.03853-.13847-.27694h-.06926l.2077.27694Zm74.498-4.63882-.13847-.13849.06926.13849h.06921Zm-83.91415,2.14633v-.06927l-.06927.06927Zm85.922-3.39258.20772.27694h.13847Zm-75.675,5.1927-.06927.06927v.20771l.06927-.27694ZM61.52189,275.962l.13848-.55388h-.06926l-.06927.55388Zm88.276-5.53891-.62312.34616.5539.27694.06927-.62314Zm-87.02976,5.1927-.06927-.13845.06927.13845Zm-5.1927-1.52319-1.7309.34617-1.52319,2.00784,3.25409-2.35405Zm12.39326,2.631-.41541.34616.41541-.06927v-.27689Zm79.82923-6.64666-.13847-.27694-.06927.13849.20771.13845Zm-86.47589,4.84653-.48465-.06926.48465.48465v-.41539Zm81.90631-3.94645-.13847.13849.13847.48465Zm-80.79853,3.87723-.20771.06927.27694.20771-.06926-.27694Zm5.12347,1.454h-.2077l-.13848-.13845Zm-5.67736-1.454-.34618-.20771.13848.20771Zm4.63882.76159-.62312.20772-.41542,1.1078,1.03854-1.31547Zm75.19041-4.84653v.48465l.27694-.34616-.27694-.13845Zm-83.36025,2.631.55388-.13845h-.06926l-.48466.13845Zm-.69236-.41543-.13848-.13845v.06927l.13848.06927Zm84.05261-2.70021-.13847-.06927-.06926.20772.20771-.13849Zm-75.952,4.15417-.13847-.06927-.13848.20772.27694-.13849Zm75.25965-4.01568.06926-.34616-.13846-.06927.06926.41543Zm-.5539-.34616-.20772.27694.34619.06927-.13847-.34617Zm-71.79783,3.39258-.13848-.1385h-.06926l.2077.1385Zm71.59011-4.63883.5539.20772.20772-.27694-.7616.06927Zm.83084-.48465-.20771.13845.34618.20771Zm-1.59243.41543-.13847-.27694-.13847.13849.277.13845Zm6.9236-2.56172-.90006,2.56172.90006-.55388ZM66.36845,271.531h0Zm75.952-4.36188-.62313.62315.13847.69236.48466-1.31547ZM77.86165,272.708v-.27694l-.06927.13849Zm63.6972-6.23123,2.00784,3.04637,4.50036,2.83869-1.03854-2.42326-4.29263-3.66952-1.177.20772Zm-66.46664,5.12347-.06927-.20771-.13847.06926.20771.13845Zm68.82069-6.3005-.277,1.03853.48465-.34616-.20771-.69237Zm1.454,0-.06927.69237.62313.20772-.5539-.90009Zm-68.05909,5.40042-.34617-.06927-.34618.13849.69235-.06927Zm7.13133.55388-.27695.48465.13848-.41543.13848-.06927Zm1.03853.06926-.62312.06927.34618.41543.27694-.48465Zm-41.95707-8.86221.69236.34616-.13847-.13849-.55389-.20772Zm27.48673,6.85437.06926-.06926-.06926.06926Zm.2077-.06926h.06927v-.06927Zm71.59013-5.33119.34619,1.31547.69237-.41543-1.03854-.90009Zm-69.72075,4.56959.06927-.06926h0Zm66.74358-4.01567.34619,3.18486.69237-.69237Zm.34619-1.03853,1.59243,2.21555-.20772-1.454Zm-4.91576.55387-.41541,1.31547.55388-.90008-.13847-.41543ZM79.8695,267.37687l-.06927-.06927.06927.06927Zm6.57743.13849-.13848-.20771.13848.27693v-.06922Zm48.94992-4.5696,2.76945,4.5696-.41541-3.11564-2.354-1.454ZM90.32415,265.369l-.20771.20772.34619.13849-.13848-.34617Zm-.90008.13849.06927-.20771H89.2164l.20771.20771Zm-.69235,0-1.80014,1.177L84.716,269.59247l1.10777,1.177,5.12347-3.808Zm43.688-4.50033-.48465-.27694v.41543l.48465-.13845Zm-44.10339,3.66952.06927.27693.48465.27694-.55389-.55387Zm45.41888-4.985-1.38471.69237,1.31547.41543.06926-1.1078Zm-.90006,0-.13847-.13849-.06927.13849h.20774Zm4.22339-1.1078-.5539-.20771-.13847.41543Zm-2.97714.48466-.48466-.06927v.13849l.48466-.06927Zm1.52318-.55388,2.83868,4.15417-.76159-3.808-2.07709-.34616ZM89.90874,263.015l-1.66167,1.24625.7616.83081,2.21555-1.66167-1.31548-.41543Zm-18.83222-2.631-.06927-.06927v.06927Zm-.76159-.34617-.06927-.34616v.13845Zm21.25549.90009-.13849.06926v.06927l.13849-.13849Zm-.69236-.13845h-.06927l-.13847.20771.2077-.20771Zm1.66166-.55388-.2077-.13849v.06927l.2077.06927Zm.55389-.06927-.2077-.13849v.06927l.2077.06927Zm-.90007-.20771h-.27695v.06927Zm13.778-1.38474.06926-.20771-.13848.13844.06927.06927Zm4.2234-2.21555.83083-1.03853-.27694.20771Zm-8.44681-.13849.27694-.20772.06927-.27694-.34618.48466Zm0-.7616-.27695.20772.48466-.13845Zm-11.35473,0-.06926-.27693h-.06927l.13847.27693Zm11.07778-.06926-.27694.27694-.13847.27693Zm7.616-.83082h0Zm.34618,0-.13847-.06927v.06927Zm-.83083-.06927.06927.06927v-.06927Zm-5.67737.41543.27694-.27694-.34617.27694h.06923Zm4.22341-.83081Zm-3.39257.20771-1.66166,2.70021,2.14632-2.49249Zm-2.14632.34616-.2077-.27693-.06927.13844.27694.13849Zm5.26195-.62314-.13848-.06927.06926.06927h.06922Zm1.80013.13849v-.48465l-.13848.20771ZM57.85244,248.8216l-3.32333-.13847,2.28479,2.42327Zm47.28826,4.91578.13848.48466.34617-.55388-.48465.06927Zm-2.76944-.06926-.20771,1.52318.34619-.96931ZM42.27433,242.17494l.06927-.277h0Zm59.40457,10.52387.06927.20771.13846-.06926-.2077-.13849Zm-.34618.27694-.13848-.41543-.2077.13849Zm3.2541-.83082V251.868l-.2077.13849.2077.1385Zm-3.11563-.41543v.69237l.20771-.48465Zm-5.26193-.83084V250.691h0ZM60.068,242.31339l.13847-.41541-.06927.06927-.06927.34618Zm.2077-.69237-.06926-.06927-.06927.06927h.13853Zm3.04638-1.66166v-.06926h0Zm0-.277-.06926-.13846h0Zm1.24626-1.80014Zm.41542.13847-.27694-.13847v.06927l.27694.06926Zm-.41542-.27694v-.13847l-.13848.13847Zm-11.07778-3.25411-.13847-.34618-.06926-.20769.2077.55387Zm1.03854-1.24624h.06927l.06927.06926-.13847-.06926Zm-1.86938-.34619-.55388-.69237.41542.55388.13846.13847ZM51.552,231.78948H51.4135l.2077.06926-.06926-.06926Zm.13848-.7616Zm-.13848-.06926h0l.13848.06926Zm18.34756,5.46966-.76159.06926.41542.20772.34617-.27694Zm-19.10915-6.71591-.55389,2.07708,1.7309.27694,2.2848,2.354,1.38471-.62313Zm12.11632.83084v0Zm-3.46181-7.339-.13848-.06927.06926.06927h.06922Zm2.00785.69237.2077-.06927h-.06927l-.13848.06927Zm1.38471-.41541h.20771l.62312-.27694-.83084.27694Zm2.4925-.76159.13847-.13847-.2077.13847H65.33Zm.34618-.06927.41542-.20772-.34619.06927-.06926.13847Zm1.03854-.41541-.34618.06927v.06926l.34618-.13846Zm.41542-.06927Zm44.03416-12.46248-.27694-.20772-.48466-.20771.7616.41541Zm-36.27971-1.52319.62312-.83083-.34617.27693-.27694.55388Zm.83083-.9693.277-.41541-.13849.13847-.13848.27694Zm.41541-.55388.48466-.41541-.27694.13847-.2077.277Zm21.80937.13847.34618.34618H98.494Zm-11.147-4.56958-2.83867,2.354-1.7309-.48465-4.01569,2.2848-.7616-.48465-4.56958,5.12347-4.63882,1.03855.4154,2.4925,2.07709,2.83867,3.87722,3.73876-.62313,1.454,2.90792,1.24624-1.5232.27694-1.86938-1.454.96931,2.14631-1.24626.76159-3.94645-3.60027-3.11563.55388-5.33118,2.00784,2.42327,2.7002-.34617,1.66168,1.59243,1.93862,5.26193,2.07708,3.808-1.93861.62312,1.454-1.03853,4.36186H69.96877L66.23,238.43611l-.20771-1.177-1.93861.76159-.90007,2.00784-3.18487,2.42327v3.53105l1.24626.55388-.96931,2.97714,4.15416,3.60029,2.631-1.1078-.55388,4.43111.76159.96931,3.18486.69237,1.177,1.31547,2.76944.20771,1.31548,1.38474,2.83868-.83082-1.31548,1.80013L76.2,265.64588l-8.44681,5.46964-1.10778,1.1078-1.59243-.62315-2.56172.62315-3.66952,2.42327,5.7466-1.66168.83084,1.24625,7.40825-2.42327.20771.96931,2.90791-2.90793,6.09278-4.22339.48466.27694,5.33118-4.22339L86.447,260.03775l1.80014-2.97714,4.70805-5.60813,3.60028-.69237,1.10778.76159L93.30134,252.768l-1.177,4.63882.13848,2.49249,1.5232-.13849,7.339-4.43111.55389-1.66167-.62312-2.56172,2.21554.55388,1.59244-1.03853,4.56958,2.76943-.34618.76159,10.38541,1.31547,2.42327-.76159.69237,1.03853,9.00069,4.29262,1.52318-.90009.13847-5.1927,1.177,2.354,5.81582,4.2234.48466,1.7309,5.05423,2.83869,1.31549,3.66952,1.24625-2.83866,2.56173,4.985,1.7309-2.8387-1.38471-3.531-5.33117-.55388-8.16987-7.82368-4.43111-3.25409-3.39257,3.32335h-2.00784l-4.63882-3.04637-4.56959-.20771-6.50819-41.057L111.095,209.98l-2.631-1.59243-3.94646.76159-3.04639-.62312L97.594,207.00285l-4.08493.27693-1.03853-1.93861-3.2541-.48465-.55389-1.177-1.454,1.66168-.41542-3.11561Z" transform="translate(-7.58632 -8.92871)"/><text class="cls-2" transform="translate(4.63987 16.2998)">Monthly Housing Cost</text><text class="cls-3" transform="translate(5.47215 42.19513)">Here there will be an overview of the<tspan class="cls-4"><tspan x="0" y="9.6001">highlighted demographic variable</tspan><tspan class="cls-5" x="115.58203" y="9.6001">.</tspan></tspan><tspan class="cls-6"><tspan x="0" y="19.2002">Each of the demographic variables</tspan><tspan class="cls-7" x="112.87793" y="19.2002"> </tspan></tspan><tspan class="cls-8"><tspan x="0" y="28.7998">will have a histogram to show their </tspan></tspan><tspan class="cls-9"><tspan x="0" y="38.3999">distribution, and will change as you</tspan><tspan class="cls-8" x="103.8457" y="38.3999"> </tspan></tspan><tspan class="cls-10"><tspan x="0" y="48">scroll.</tspan><tspan class="cls-11" x="19.75977" y="48"> </tspan><tspan class="cls-12" x="21.67969" y="48">At the top of the map will</tspan><tspan class="cls-13" x="102.70996" y="48"> </tspan></tspan><tspan class="cls-14"><tspan x="0" y="57.6001">be the scale for di</tspan><tspan class="cls-15" x="51.39063" y="57.6001">f</tspan><tspan class="cls-16" x="53.1748" y="57.6001">ferent measures</tspan></tspan><tspan class="cls-17"><tspan x="0" y="67.2002">of Internet access, that you can </tspan></tspan><tspan class="cls-18"><tspan x="0" y="76.7998">switch between, and a rug plot</tspan><tspan class="cls-19" x="89.12598" y="76.7998" xml:space="preserve"> to </tspan></tspan><tspan class="cls-20"><tspan x="0" y="86.3999">show the distribution for that variable.</tspan></tspan><tspan class="cls-21"><tspan x="0" y="95.99951">A</tspan><tspan class="cls-19" x="4.15186" y="95.99951" xml:space="preserve"> few interesting places will be </tspan></tspan><tspan class="cls-22"><tspan x="0" y="105.6001">highlighted on the map, clicking on them </tspan></tspan><tspan class="cls-23"><tspan x="0" y="115.19971">will zoom to that area with this text</tspan><tspan class="cls-19" x="109.88525" y="115.19971"> </tspan></tspan><tspan class="cls-24"><tspan x="0" y="124.80029">changing to describe about that specific</tspan></tspan><tspan class="cls-25"><tspan x="0" y="134.3999">area.</tspan><tspan class="cls-26" x="15.66357" y="134.3999"> </tspan><tspan class="cls-27" x="17.3916" y="134.3999">At the bottom right, you can choose to</tspan><tspan class="cls-8" x="133.55713" y="134.3999"> </tspan></tspan><tspan class="cls-19"><tspan x="0" y="143.99951">see data at di</tspan><tspan class="cls-28" x="42.70313" y="143.99951">f</tspan><tspan x="44.75098" y="143.99951">ferent levels of geographic area.</tspan></tspan></text><circle class="cls-29" cx="415.23145" cy="250.64281" r="7.5"/><circle cx="453.58644" cy="249.64281" r="6"/><circle class="cls-29" cx="489.08644" cy="250.64281" r="4.5"/><circle class="cls-29" cx="521.58946" cy="250.64281" r="3"/><rect class="cls-29" x="422.58644" y="249.64281" width="25" height="2"/><rect class="cls-29" x="459.58644" y="249.64281" width="25" height="2"/><rect class="cls-29" x="493.58946" y="249.64281" width="25" height="2"/><rect class="cls-30" x="251.27143" y="273.84292" width="30" height="2" transform="translate(-109.33417 161.02897) rotate(-30)"/><rect class="cls-31" x="361.23685" y="106.527" width="50.73" height="38.17979"/><rect class="cls-31" x="112.40472" y="111.94926" width="22.43327" height="22.43327"/><rect class="cls-31" x="280.47751" y="63.70795" width="35.24492" height="25.3219"/></g><g id="Layer_3" data-name="Layer 3"><rect class="cls-32" x="441.55654" y="103.3549" width="97.2" height="56.2908"/><rect class="cls-33" x="517.99951" y="138.77806" width="9.25714" height="11.2436"/><text class="cls-34" transform="translate(450.94214 158.85914) rotate(-45)">300</text><text class="cls-34" transform="translate(485.94214 133.85914) rotate(-45)">300</text><text class="cls-34" transform="translate(459.95655 158.85914) rotate(-45)">600</text><text class="cls-34" transform="translate(468.94214 158.85914) rotate(-45)">900</text><text class="cls-34" transform="translate(477.1565 158.85914) rotate(-45)">1200</text><text class="cls-34" transform="translate(485.94214 158.85914) rotate(-45)">1500</text><text class="cls-34" transform="translate(495.94214 158.85914) rotate(-45)">1800</text><text class="cls-34" transform="translate(505.94214 158.85914) rotate(-45)">2100</text><text class="cls-34" transform="translate(515.94214 158.85914) rotate(-45)">2400</text><text class="cls-34" transform="translate(524.94214 158.85914) rotate(-45)">2700</text><text class="cls-35" transform="translate(243.87991 258.64258)">SCROL<tspan class="cls-36" x="20.77588" y="0">L</tspan><tspan class="cls-37" x="23.90381" y="0" xml:space="preserve"> FOR MORE</tspan></text><rect class="cls-38" x="237.36167" y="23.38581" width="13.98081" height="8.49418"/><rect class="cls-39" x="251.34247" y="23.38581" width="13.98081" height="8.49418"/><rect class="cls-40" x="265.32328" y="23.38581" width="13.98081" height="8.49418"/><rect class="cls-41" x="279.30409" y="23.38581" width="13.98081" height="8.49418"/><rect class="cls-42" x="293.28489" y="23.38581" width="13.98081" height="8.49418"/><text class="cls-43" transform="translate(253.84716 19.95703)">Broadband</text><text class="cls-44" transform="translate(308.84192 21.95703)">Wireless</text><text class="cls-44" transform="translate(204.09961 21.95702)">All Internet</text><text class="cls-44" transform="translate(345.87747 21.95703)">Fiber</text><text class="cls-45" transform="translate(406.63745 264.55714)">Country</text><text class="cls-35" transform="translate(446.31149 264.55714)">State</text><text class="cls-45" transform="translate(481.34548 264.55714)">County</text><text class="cls-45" transform="translate(506.42545 264.55714)">Census<tspan class="cls-46" x="17.87109" y="0"> </tspan><tspan class="cls-47" x="19.25684" y="0">T</tspan><tspan x="22.28809" y="0">ract</tspan></text><rect x="278.9" y="275.93731" width="20" height="2" transform="translate(-84.88157 106.58209) rotate(-19.99997)"/><rect x="260.9" y="275.93731" width="20" height="2" transform="translate(103.46962 -84.88084) rotate(20.00009)"/><rect class="cls-48" x="414.30411" y="138.53534" width="41.80024" height="15.42857" rx="7.71428" transform="translate(281.36813 572.52509) rotate(-89.99998)"/><text class="cls-49" transform="translate(422.44138 130.7998) scale(1.33174 1)">+</text><text class="cls-50" transform="translate(423.78572 152.06445) scale(1.29396 1)">-</text></g><g id="Layer_2" data-name="Layer 2"><text class="cls-51" transform="translate(478.38478 60.1149)">Race</text><text class="cls-51" transform="translate(458.95665 78.2349)">Median Income</text><text class="cls-51" transform="translate(465.61335 97.51475)">Median<tspan class="cls-52" x="29.65137" y="0"> </tspan><tspan x="31.66699" y="0">Age</tspan></text><text class="cls-53" transform="translate(460.52879 116.75485)">Housing Cost</text><text class="cls-51" transform="translate(474.1318 173.21305)">Gender</text><text class="cls-51" transform="translate(451.58454 192.15229)">Employment Status</text><text class="cls-51" transform="translate(460.52835 209.97581)">Commute<tspan class="cls-54" x="39.20313" y="0"> </tspan><tspan class="cls-55" x="41.5791" y="0">T</tspan><tspan x="46.90723" y="0">ime</tspan></text><rect class="cls-56" x="447.21368" y="178.74757" width="86.91429" height="18.50541"/><rect class="cls-56" x="447.21368" y="197.64026" width="86.91429" height="18.50541"/><rect class="cls-56" x="447.21368" y="159.85487" width="86.91429" height="18.50541"/><rect class="cls-56" x="446.6994" y="65.74762" width="86.91429" height="18.50541"/><rect class="cls-56" x="446.6994" y="84.64032" width="86.91429" height="18.50541"/><rect class="cls-56" x="446.6994" y="46.85493" width="86.91429" height="18.50541"/><rect class="cls-48" x="453.05642" y="143.92092" width="9.25714" height="6.10074"/><rect class="cls-48" x="462.45666" y="139.46377" width="9.25714" height="10.55789"/><rect class="cls-57" x="471.7138" y="136.47129" width="9.25714" height="13.55037"/><rect class="cls-57" x="480.97094" y="125.74949" width="9.25714" height="24.27217"/><rect class="cls-29" x="490.22809" y="122.92092" width="9.25714" height="27.10074"/><rect class="cls-29" x="499.48523" y="128.14949" width="9.25714" height="21.87217"/><rect class="cls-33" x="508.74237" y="134.32092" width="9.25714" height="15.70074"/><text class="cls-58" transform="translate(237.99669 42.93359) scale(1.9482 1)">rem<tspan class="cls-39" x="7.09865" y="0" xml:space="preserve"> ip</tspan><tspan class="cls-40" x="14.1973" y="0">sum</tspan><tspan class="cls-59" x="21.2957" y="0">hjk</tspan><tspan class="cls-42" x="28.3946" y="0">sty</tspan></text><text class="cls-60" transform="translate(234.56384 37.1809)">0%</text><text class="cls-60" transform="translate(246.96384 37.18114)">20%</text><text class="cls-60" transform="translate(261.47813 37.18113)">40%</text><text class="cls-60" transform="translate(275.3638 37.18134)">60%</text><text class="cls-60" transform="translate(289.39263 37.18111)">80%</text><text class="cls-60" transform="translate(302.76384 37.18157)">100%</text></g></svg>